<svg width="25" height="24" viewBox="0 0 25 24" fill="none" xmlns="http://www.w3.org/2000/svg">
<path d="M17.26 2H7.23918C4.472 2 2.22876 4.23858 2.22876 7V17C2.22876 19.7614 4.472 22 7.23918 22H17.26C20.0272 22 22.2705 19.7614 22.2705 17V7C22.2705 4.23858 20.0272 2 17.26 2Z" stroke="#D0021B" stroke-width="2" stroke-linecap="round" stroke-linejoin="round"/>
<path d="M16.258 11.3701C16.3817 12.2023 16.2392 13.0523 15.8509 13.7991C15.4626 14.5459 14.8482 15.1515 14.0951 15.5297C13.342 15.908 12.4886 16.0397 11.6562 15.906C10.8238 15.7723 10.0548 15.3801 9.45869 14.7852C8.86253 14.1903 8.46952 13.4229 8.33558 12.5923C8.20164 11.7616 8.33357 10.91 8.71262 10.1584C9.09167 9.40691 9.69853 8.7938 10.4469 8.4063C11.1952 8.0188 12.047 7.87665 12.881 8.00006C13.7317 8.12594 14.5192 8.52152 15.1273 9.12836C15.7354 9.73521 16.1318 10.5211 16.258 11.3701Z" stroke="#D0021B" stroke-width="2" stroke-linecap="round" stroke-linejoin="round"/>
<path d="M17.761 6.5H17.771" stroke="#D0021B" stroke-width="2" stroke-linecap="round" stroke-linejoin="round"/>
</svg>
