<?xml version="1.0" encoding="utf-8"?>
<!-- Generator: Adobe Illustrator 26.0.2, SVG Export Plug-In . SVG Version: 6.00 Build 0)  -->
<svg version="1.1" id="Layer_1" xmlns="http://www.w3.org/2000/svg" xmlns:xlink="http://www.w3.org/1999/xlink" x="0px" y="0px"
	 viewBox="0 0 815.6 53" style="enable-background:new 0 0 815.6 53;" xml:space="preserve">
<style type="text/css">
	.st0{fill-rule:evenodd;clip-rule:evenodd;fill:#CD0000;}
</style>
<path d="M79.5,35.4c4.6,0,7.1-2.4,8.5-4.9l-3.7-1.8c-0.8,1.6-2.6,2.9-4.9,2.9c-3.5,0-6.1-2.8-6.1-6.6s2.6-6.6,6.1-6.6
	c2.2,0,4,1.3,4.9,2.9l3.7-1.8c-1.4-2.5-4-4.9-8.5-4.9C73.7,14.7,69,18.9,69,25S73.7,35.4,79.5,35.4z M112.5,35h4.3V15h-4.3v7.9h-9.5
	V15h-4.3v20h4.3v-8.4h9.5V35z M129,35h4.3V15H129V35z M159.3,35h4.1V15h-4.3v13l-9.3-13h-4.4v20h4.3V21.6L159.3,35z M189.6,35h4.6
	l-7.7-20h-5.3l-7.7,20h4.7l1.3-3.5h8.9L189.6,35z M183.9,18.7l3.3,9.2h-6.6L183.9,18.7z M202.9,23.3c1.8-1.3,3.1-3.3,3.1-5.6
	c0-1.9-1.3-3.1-2.7-3.1c-1.3,0-2.3,1.1-2.3,2.4c0,1.3,0.9,2.2,2,2.2c0.2,0,0.5-0.1,0.6-0.1c-0.2,1.1-1.3,2.3-2.3,2.9L202.9,23.3z
	 M216.1,32.2c1.9,1.9,4.6,3.2,8.5,3.2c5.4,0,8-2.8,8-6.4c0-4.4-4.2-5.4-7.5-6.2c-2.3-0.5-4-1-4-2.3c0-1.2,1-2,2.9-2
	c1.9,0,4.1,0.7,5.7,2.2l2.4-3.1c-2-1.8-4.6-2.8-7.8-2.8c-4.7,0-7.6,2.7-7.6,6c0,4.5,4.2,5.4,7.5,6.1c2.3,0.5,4,1,4,2.5
	c0,1.1-1.1,2.2-3.5,2.2c-2.8,0-4.9-1.2-6.4-2.7L216.1,32.2z M269.2,35.4c4.6,0,7.1-2.4,8.5-4.9l-3.7-1.8c-0.8,1.6-2.6,2.9-4.9,2.9
	c-3.5,0-6.1-2.8-6.1-6.6s2.6-6.6,6.1-6.6c2.2,0,4,1.3,4.9,2.9l3.7-1.8c-1.4-2.5-4-4.9-8.5-4.9c-5.9,0-10.5,4.2-10.5,10.4
	S263.3,35.4,269.2,35.4z M302.2,35h4.3V15h-4.3v7.9h-9.5V15h-4.3v20h4.3v-8.4h9.5V35z M318.7,35h4.3V15h-4.3V35z M335.1,35h12.7
	v-3.8h-8.5V15h-4.3V35z M359.1,35h7.9c6.3,0,10.6-4,10.6-10s-4.3-10-10.6-10h-7.9V35z M363.3,31.2V18.7h3.6c4.1,0,6.3,2.7,6.3,6.3
	c0,3.4-2.3,6.2-6.3,6.2H363.3z M400.2,35h4.9l-4.5-7.6c2.2-0.5,4.4-2.4,4.4-5.9c0-3.7-2.5-6.5-6.7-6.5h-9.4v20h4.3v-7.2h3.1
	L400.2,35z M400.6,21.4c0,1.7-1.3,2.8-3,2.8h-4.5v-5.5h4.5C399.3,18.6,400.6,19.7,400.6,21.4z M416.4,35h14.2v-3.7h-9.9v-4.6h9.7V23
	h-9.7v-4.4h9.9V15h-14.2V35z M455.9,35h4.1V15h-4.3v13l-9.3-13h-4.4v20h4.3V21.6L455.9,35z M488.2,35h4.3V15h-4.3V35z M518.5,35h4.1
	V15h-4.3v13L509,15h-4.4v20h4.3V21.6L518.5,35z M539.4,35h4.3V18.7h5.8V15h-16v3.8h5.9V35z M560.5,35h14.2v-3.7h-9.9v-4.6h9.7V23
	h-9.7v-4.4h9.9V15h-14.2V35z M597.5,35h4.9l-4.5-7.6c2.2-0.5,4.4-2.4,4.4-5.9c0-3.7-2.5-6.5-6.7-6.5h-9.4v20h4.3v-7.2h3.1L597.5,35z
	 M597.9,21.4c0,1.7-1.3,2.8-3,2.8h-4.5v-5.5h4.5C596.6,18.6,597.9,19.7,597.9,21.4z M627.5,35h4.1V15h-4.3v13l-9.3-13h-4.4v20h4.3
	V21.6L627.5,35z M657.9,35h4.6l-7.7-20h-5.3l-7.7,20h4.7l1.3-3.5h8.9L657.9,35z M652.1,18.7l3.3,9.2h-6.6L652.1,18.7z M675.3,35h4.3
	V18.7h5.8V15h-16v3.8h5.9V35z M696.4,35h4.3V15h-4.3V35z M711.9,25c0,6,4.4,10.4,10.4,10.4c6.1,0,10.5-4.3,10.5-10.4
	s-4.4-10.4-10.5-10.4C716.3,14.7,711.9,19,711.9,25z M728.4,25c0,3.7-2.4,6.6-6.1,6.6s-6.1-2.9-6.1-6.6c0-3.8,2.4-6.6,6.1-6.6
	S728.4,21.3,728.4,25z M757.8,35h4.1V15h-4.3v13l-9.3-13H744v20h4.3V21.6L757.8,35z M788.2,35h4.7l-7.7-20h-5.3L772,35h4.7l1.3-3.5
	h8.9L788.2,35z M782.4,18.7l3.3,9.2h-6.6L782.4,18.7z M802.9,35h12.7v-3.8h-8.5V15h-4.3V35z"/>
<path class="st0" d="M2,26.5C2,13,13,2,26.5,2S51,13,51,26.5S40,51,26.5,51S2,40,2,26.5z M26.5,0C11.9,0,0,11.9,0,26.5
	S11.9,53,26.5,53S53,41.1,53,26.5S41.1,0,26.5,0z M14.8,13.8c-0.3,0-0.5,0.1-0.7,0.3c-0.2,0.2-0.3,0.5-0.3,0.7v8.8c0,0.6,0.5,1,1,1
	h18.5v-2H15.8v-6.7h23.4v-2H14.8z M38.9,18.4c-0.2-0.2-0.5-0.3-0.7-0.3H19.7v2h17.5v6.7H13.8v2h24.5c0.6,0,1-0.5,1-1v-8.8
	C39.2,18.9,39.1,18.6,38.9,18.4z M39.2,31.3H13.8v2l11.7,0v3.9H13.8v2h25.5v-2H27.5v-3.9h11.7V31.3z"/>
</svg>
