<svg width="25" height="21" viewBox="0 0 25 21" fill="none" xmlns="http://www.w3.org/2000/svg">
<path d="M23.831 2.00005C22.8714 2.67552 21.8089 3.19216 20.6845 3.53005C20.081 2.83756 19.2789 2.34674 18.3867 2.12397C17.4946 1.90121 16.5554 1.95724 15.6962 2.2845C14.837 2.61176 14.0992 3.19445 13.5827 3.95376C13.0661 4.71308 12.7958 5.61238 12.8081 6.53005V7.53005C11.0471 7.57561 9.30207 7.18586 7.72853 6.39549C6.15499 5.60513 4.80175 4.43868 3.78933 3.00005C3.78933 3.00005 -0.219013 12 8.79975 16C6.73598 17.398 4.2775 18.099 1.78516 18C10.8039 23 21.8269 18 21.8269 6.50005C21.8259 6.2215 21.7991 5.94364 21.7467 5.67005C22.7694 4.66354 23.4911 3.39276 23.831 2.00005V2.00005Z" stroke="#D0021B" stroke-width="2" stroke-linecap="round" stroke-linejoin="round"/>
</svg>
