<svg width="25" height="24" viewBox="0 0 25 24" fill="none" xmlns="http://www.w3.org/2000/svg">
<g clip-path="url(#clip0_1475_187)">
<path d="M22.9512 6.42C22.8322 5.94541 22.5897 5.51057 22.2484 5.15941C21.9071 4.80824 21.4789 4.55318 21.0072 4.42C19.2836 4 12.3892 4 12.3892 4C12.3892 4 5.49489 4 3.7713 4.46C3.29956 4.59318 2.8714 4.84824 2.53006 5.19941C2.18872 5.55057 1.94629 5.98541 1.82725 6.46C1.51181 8.20556 1.35751 9.97631 1.3663 11.75C1.35505 13.537 1.50936 15.3213 1.82725 17.08C1.95849 17.5398 2.20635 17.9581 2.5469 18.2945C2.88744 18.6308 3.30916 18.8738 3.7713 19C5.49489 19.46 12.3892 19.46 12.3892 19.46C12.3892 19.46 19.2836 19.46 21.0072 19C21.4789 18.8668 21.9071 18.6118 22.2484 18.2606C22.5897 17.9094 22.8322 17.4746 22.9512 17C23.2642 15.2676 23.4185 13.5103 23.4122 11.75C23.4234 9.96295 23.2691 8.1787 22.9512 6.42V6.42Z" stroke="#D0021B" stroke-width="2" stroke-linecap="round" stroke-linejoin="round"/>
<path d="M10.1345 15.02L15.8965 11.75L10.1345 8.47998V15.02Z" stroke="#D0021B" stroke-width="2" stroke-linecap="round" stroke-linejoin="round"/>
</g>
<defs>
<clipPath id="clip0_1475_187">
<rect width="24.05" height="24" fill="white" transform="translate(0.364258)"/>
</clipPath>
</defs>
</svg>
